# xmcd
#
# Track frame offsets:
#	150
#	14074
#	33685
#	46807
#	60723
#	73299
#	87900
#	98567
#	116111
#	131345
#	142681
#	159073
#	176274
#	193248
#	210050
#	229832
#	244512
#	261461
#	281971
#	298898
#	317259
#	340849
#
# Disc length: 4737 seconds
#
# Revision: 1
# Processed by: cddbd v1.4PL0 Copyright (c) Steve Scherf et al.
# Submitted via: EasyCDDAExtractor 5.0.6
#
DISCID=3d127f16
DTITLE=Various Artist - varié
DYEAR=2000
DGENRE=Country
TTITLE0=bélivo - Albénie
TTITLE1=bélivo - la tragédie de st-andré
TTITLE2=bélivo - riche ou pauvre
TTITLE3=bélivo - prière d'une mère
TTITLE4=Adé Gagnon - sur la route de berthier
TTITLE5=barachois - fille délaissé
TTITLE6=barachois - quand j'était chez mon père
TTITLE7=barachois - mon mari
TTITLE8=stephen Faulkner - moi je veux jouer au cowboy
TTITLE9=stephen Faulkner - si j'avais un char
TTITLE10=Billy Hunter - mon dieu que c'est dur d'être humble
TTITLE11=Gaston Mandeville - où sont passé les vrai rebelle
TTITLE12=Gaston Mandeville - l'homme de la maison
TTITLE13=Gaston Mandeville - berceuse
TTITLE14=Gaston Mandeville - en route vers l'an 2000
TTITLE15=Gaston Mandeville - le bonheur
TTITLE16=Gaston Mandeville - les anges dansent
TTITLE17=Gaston Mandeville - mon petit trésor
TTITLE18=Gaston Mandeville - si fragile
TTITLE19=Gaston Mandeville - toutes les nuits
TTITLE20=Gaston Mandeville - 18 ans
TTITLE21=Fred Fortin - que je t'étranglerai
EXTD=
EXTT0=
EXTT1=
EXTT2=
EXTT3=
EXTT4=
EXTT5=
EXTT6=
EXTT7=
EXTT8=
EXTT9=
EXTT10=
EXTT11=
EXTT12=
EXTT13=
EXTT14=
EXTT15=
EXTT16=
EXTT17=
EXTT18=
EXTT19=
EXTT20=
EXTT21=
PLAYORDER=
